<?xml version="1.0" encoding="iso-8859-1"?>
<!-- Generator: Adobe Illustrator 19.0.0, SVG Export Plug-In . SVG Version: 6.00 Build 0)  -->
<svg version="1.1" id="Capa_1" xmlns="http://www.w3.org/2000/svg" xmlns:xlink="http://www.w3.org/1999/xlink" x="0px" y="0px"
	 viewBox="0 0 480 480" style="enable-background:new 0 0 480 480;" xml:space="preserve">
<path style="fill:#BBDEF9;" d="M32,64h384c13.6,0,24,10.4,24,24v272c0,13.6-10.4,24-24,24H32c-13.6,0-24-10.4-24-24V88
	C8,74.4,18.4,64,32,64z"/>
<g>
	<path style="fill:#DEF0FF;" d="M272,352l168-168c0,0,5.6-108.8,0.8-112.8L160,352H272z"/>
	<polygon style="fill:#DEF0FF;" points="124.8,352 72,352 360,64 412.8,64 	"/>
	<polygon style="fill:#DEF0FF;" points="32,352 0,352 288,64 320,64 	"/>
</g>
<polygon style="fill:#97E0BB;" points="304,352 216,272 136,352 "/>
<g>
	<polygon style="fill:#72CAAF;" points="440,328 344,240 232,352 440,352 	"/>
	<path style="fill:#72CAAF;" d="M416,384H32c-13.6,0-24-10.4-24-24v-8l0,0h432l0,0v8C440,373.6,429.6,384,416,384z"/>
</g>
<path style="fill:#F9E3AE;" d="M440,96v288H40v8c0,13.6,10.4,24,24,24h384c13.6,0,24-10.4,24-24V120c0-13.6-10.4-24-24-24H440z"/>
<circle style="fill:#FFEB9B;" cx="120" cy="176" r="32"/>
<g>
	<path style="fill:#8D6C9F;" d="M160.8,176c0-22.4-17.6-40-40-40s-40,17.6-40,40s17.6,40,40,40S160.8,198.4,160.8,176z M120.8,202.4
		c-14.4,0-26.4-12-26.4-26.4s12-26.4,26.4-26.4s26.4,12,26.4,26.4S135.2,202.4,120.8,202.4L120.8,202.4z"/>
	<path style="fill:#8D6C9F;" d="M456,88h-8v-8c0-13.6-10.4-24-24-24H24C10.4,56,0,66.4,0,80v288c0,13.6,10.4,24,24,24h8v8
		c0,6.4,2.4,12.8,7.2,16.8c4,4.8,10.4,7.2,16.8,7.2h400c13.6,0,24-10.4,24-24V112C480,98.4,469.6,88,456,88z M24,376
		c-4.8,0-8-3.2-8-8V80c0-4,3.2-8,7.2-8H24h400c4,0,8,3.2,8,7.2V80v288c0,4-3.2,8-7.2,8H424H24z M464,400c0,4-3.2,8-7.2,8H456H56
		c-4.8,0-8-3.2-8-8v-8h376c13.6,0,24-10.4,24-24V104h8c4,0,8,3.2,8,7.2v0.8V400z"/>
	<path style="fill:#8D6C9F;" d="M112,240v16c0,4.8,3.2,8,8,8s8-3.2,8-8v-16c0-4.8-3.2-8-8-8S112,235.2,112,240z"/>
	<path style="fill:#8D6C9F;" d="M120,120c4.8,0,8-3.2,8-8V96c0-4.8-3.2-8-8-8s-8,3.2-8,8v16C112,116.8,115.2,120,120,120z"/>
	<path style="fill:#8D6C9F;" d="M176,176c0,4.8,3.2,8,8,8h16c4.8,0,8-3.2,8-8s-3.2-8-8-8h-16C179.2,168,176,171.2,176,176z"/>
	<path style="fill:#8D6C9F;" d="M40,184h16c4.8,0,8-3.2,8-8s-3.2-8-8-8H40c-4.8,0-8,3.2-8,8S35.2,184,40,184z"/>
	<path style="fill:#8D6C9F;" d="M152.8,249.6c1.6,2.4,4,4,7.2,4c1.6,0,3.2,0,4-0.8c4-2.4,4.8-7.2,3.2-11.2l0,0l-8-13.6
		c-2.4-4-7.2-4.8-11.2-2.4c-3.2,2.4-4.8,6.4-2.4,10.4L152.8,249.6z"/>
	<path style="fill:#8D6C9F;" d="M80.8,124.8c1.6,2.4,4,4,7.2,4c1.6,0,3.2,0,4-0.8c4-2.4,4.8-7.2,3.2-11.2l0,0l-8-13.6
		c-2.4-4-7.2-4.8-11.2-2.4c-3.2,2.4-4.8,6.4-2.4,10.4L80.8,124.8z"/>
	<path style="fill:#8D6C9F;" d="M168.8,148c1.6,2.4,4,4,7.2,4c1.6,0,2.4-0.8,4-1.6l13.6-8c4-2.4,5.6-7.2,3.2-10.4
		c-2.4-4-7.2-5.6-10.4-3.2c0,0,0,0-0.8,0l-13.6,8C167.2,139.2,166.4,144,168.8,148z"/>
	<path style="fill:#8D6C9F;" d="M60.8,200.8l-13.6,8c-4,2.4-4.8,7.2-3.2,11.2l0,0c1.6,2.4,4,4,6.4,4c1.6,0,2.4-0.8,4-1.6l13.6-8
		c4-2.4,4.8-7.2,2.4-11.2C68.8,200.8,64,199.2,60.8,200.8L60.8,200.8z"/>
	<path style="fill:#8D6C9F;" d="M171.2,215.2l13.6,8c0.8,0.8,2.4,1.6,4,1.6c3.2,0,5.6-1.6,7.2-4c2.4-4,0.8-8.8-3.2-11.2l0,0l-13.6-8
		c-3.2-3.2-8.8-1.6-11.2,1.6C165.6,207.2,167.2,212,171.2,215.2C171.2,214.4,171.2,214.4,171.2,215.2L171.2,215.2z"/>
	<path style="fill:#8D6C9F;" d="M46.4,143.2l13.6,8c1.6,0.8,3.2,0.8,4,0.8c3.2,0,5.6-1.6,7.2-4c2.4-4,0.8-8.8-3.2-11.2l0,0l-13.6-8
		c-4-2.4-8.8-1.6-11.2,2.4C41.6,135.2,42.4,140,46.4,143.2C46.4,142.4,46.4,142.4,46.4,143.2L46.4,143.2z"/>
	<path style="fill:#8D6C9F;" d="M148,127.2c0.8,0.8,2.4,0.8,4,0.8c3.2,0,5.6-1.6,7.2-4l8-13.6c2.4-4,1.6-8.8-2.4-11.2
		c-4-2.4-8.8-1.6-11.2,2.4c0,0,0,0,0,0.8l-8,13.6C143.2,120.8,144,125.6,148,127.2z"/>
	<path style="fill:#8D6C9F;" d="M92,224.8c-4-2.4-8.8-0.8-11.2,3.2l0,0l-8,13.6c-2.4,4-0.8,8.8,3.2,11.2l0,0c0.8,0.8,2.4,0.8,4,0.8
		c3.2,0,5.6-1.6,7.2-4l8-13.6C97.6,232,96,227.2,92,224.8L92,224.8z"/>
	<path style="fill:#8D6C9F;" d="M408,344H243.2l95.2-95.2c3.2-3.2,8-3.2,11.2,0l52.8,52.8c3.2,2.4,8.8,1.6,11.2-1.6
		c2.4-3.2,2.4-6.4,0-9.6l-52.8-52.8c-9.6-8.8-24-8.8-33.6,0L260,304.8l-27.2-27.2c-8.8-9.6-23.2-9.6-32.8-0.8l-0.8,0.8L132.8,344
		H104c-4.8,0-8,3.2-8,8s3.2,8,8,8h304c4.8,0,8-3.2,8-8S412.8,344,408,344z M210.4,288.8c3.2-3.2,8-3.2,11.2,0l27.2,27.2l-28,28
		h-65.6L210.4,288.8z"/>
	<path style="fill:#8D6C9F;" d="M72,344H40c-4.8,0-8,3.2-8,8s3.2,8,8,8h32c4.8,0,8-3.2,8-8S76.8,344,72,344z"/>
</g>
<g>
</g>
<g>
</g>
<g>
</g>
<g>
</g>
<g>
</g>
<g>
</g>
<g>
</g>
<g>
</g>
<g>
</g>
<g>
</g>
<g>
</g>
<g>
</g>
<g>
</g>
<g>
</g>
<g>
</g>
</svg>
